<?xml version='1.0' encoding='UTF-8' standalone='no'?>
<!-- Created with Fritzing (https://fritzing.org/) -->
<svg xmlns="http://www.w3.org/2000/svg" baseProfile="tiny" height="3.87803in" version="1.2" viewBox="0 0 153.319 279.218" width="2.12943in" x="0in"  xmlns:svg="http://www.w3.org/2000/svg" y="0in">
 <g id="watermark" >
  <g >
   <g >
    <path d="M128.587,273.018c-0.604,0,-1.131,0.325,-1.422,0.809l-2.796,0l3.96,-4.071c0.146,-0.146,0.289,-0.322,0.428,-0.521c0.149,-0.222,0.228,-0.479,0.228,-0.768c0,-0.279,-0.097,-0.518,-0.287,-0.71c-0.19,-0.188,-0.444,-0.287,-0.754,-0.287l-4.636,0c-0.305,0,-0.555,0.06,-0.742,0.17c-0.219,0.13,-0.33,0.368,-0.33,0.707c0,0.329,0.111,0.562,0.33,0.692c0.188,0.111,0.438,0.168,0.742,0.168l3.148,0l-3.974,4.086c-0.146,0.147,-0.289,0.315,-0.425,0.504c-0.153,0.212,-0.23,0.472,-0.23,0.771c0,0.28,0.096,0.521,0.288,0.711c0.188,0.188,0.442,0.285,0.754,0.285l4.315,0c0.293,0.467,0.812,0.776,1.4,0.776c0.916,0,1.66,-0.744,1.66,-1.661C130.246,273.763,129.501,273.018,128.587,273.018zM128.587,275.281c-0.334,0,-0.604,-0.271,-0.604,-0.604c0,-0.333,0.27,-0.604,0.604,-0.604c0.332,0,0.604,0.271,0.604,0.604C129.19,275.012,128.919,275.281,128.587,275.281z" fill="#8C8C8C" />
    <path d="M111.644,262.976c-0.914,0,-1.659,0.745,-1.659,1.66c0,0.916,0.745,1.66,1.659,1.66s1.658,-0.744,1.658,-1.66C113.304,263.721,112.56,262.976,111.644,262.976zM111.645,265.239c-0.333,0,-0.604,-0.27,-0.604,-0.603s0.271,-0.603,0.604,-0.603c0.331,0,0.604,0.27,0.604,0.603S111.976,265.239,111.645,265.239z" fill="#8C8C8C" />
    <path d="M120.165,267.638c-0.193,-0.111,-0.439,-0.169,-0.732,-0.169l-1.465,0L117.968,264.947c0,-0.292,-0.057,-0.538,-0.166,-0.729C117.712,264.061,117.519,263.876,117.109,263.876c-0.34,0,-0.578,0.116,-0.709,0.342c-0.109,0.193,-0.167,0.438,-0.167,0.729l0,2.521l-0.481,0c-0.295,0,-0.539,0.06,-0.731,0.169c-0.228,0.129,-0.341,0.368,-0.341,0.708c0,0.412,0.185,0.603,0.341,0.692c0.192,0.111,0.438,0.168,0.731,0.168l0.481,0l0,4.362c0,0.277,0.026,0.533,0.081,0.768c0.056,0.246,0.154,0.464,0.298,0.645c0.146,0.186,0.345,0.332,0.595,0.436c0.241,0.098,0.555,0.146,0.93,0.146l0.896,0c0.292,0,0.539,-0.054,0.731,-0.166c0.154,-0.089,0.341,-0.281,0.341,-0.693c0,-0.338,-0.114,-0.578,-0.341,-0.709c-0.192,-0.109,-0.439,-0.168,-0.731,-0.168l-0.821,0c-0.138,0,-0.19,-0.019,-0.207,-0.024c-0.014,-0.034,-0.035,-0.103,-0.035,-0.231L117.97,269.206l1.465,0c0.295,0,0.541,-0.057,0.734,-0.168c0.152,-0.09,0.34,-0.28,0.34,-0.692C120.505,268.006,120.392,267.767,120.165,267.638z" fill="#8C8C8C" />
    <path d="M111.71,267.468l-1.191,0c-0.292,0,-0.538,0.059,-0.731,0.169c-0.226,0.129,-0.341,0.368,-0.341,0.708c0,0.412,0.188,0.604,0.341,0.691c0.193,0.113,0.439,0.168,0.731,0.168l0.544,0l0,5.362c0,0.293,0.057,0.539,0.167,0.73c0.131,0.227,0.367,0.341,0.708,0.341c0.411,0,0.604,-0.187,0.692,-0.341c0.111,-0.191,0.168,-0.438,0.168,-0.73L112.798,268.556c0,-0.386,-0.084,-0.656,-0.256,-0.83C112.367,267.554,112.097,267.468,111.71,267.468z" fill="#8C8C8C" />
    <path d="M107.875,267.638c-0.193,-0.111,-0.44,-0.169,-0.732,-0.169l-0.604,0c-0.25,0,-0.498,0.063,-0.734,0.187c-0.226,0.119,-0.433,0.271,-0.616,0.453l-0.644,0.604l0,-0.247c0,-0.291,-0.055,-0.538,-0.168,-0.729c-0.128,-0.228,-0.368,-0.34,-0.707,-0.34c-0.41,0,-0.604,0.184,-0.693,0.34c-0.11,0.191,-0.167,0.438,-0.167,0.729l0,4.801c-0.475,0.293,-0.791,0.816,-0.791,1.412c0,0.917,0.745,1.661,1.658,1.661c0.916,0,1.66,-0.744,1.66,-1.661c0,-0.596,-0.317,-1.119,-0.792,-1.412l0,-2.21l1.738,-1.564c0.1,-0.09,0.199,-0.164,0.297,-0.217c0.084,-0.045,0.174,-0.067,0.274,-0.067l0.288,0c0.292,0,0.539,-0.056,0.732,-0.169c0.155,-0.088,0.339,-0.279,0.339,-0.691C108.215,268.006,108.1,267.767,107.875,267.638zM103.676,275.281c-0.332,0,-0.603,-0.271,-0.603,-0.604c0,-0.333,0.271,-0.604,0.603,-0.604c0.333,0,0.604,0.271,0.604,0.604C104.28,275.012,104.009,275.281,103.676,275.281z" fill="#8C8C8C" />
    <path d="M101.159,264.119c-0.193,-0.111,-0.44,-0.167,-0.731,-0.167l-0.59,0c-0.2,0,-0.389,0.004,-0.562,0.016c-0.176,0.009,-0.345,0.035,-0.506,0.07c-0.168,0.041,-0.336,0.109,-0.496,0.202c-0.158,0.093,-0.319,0.222,-0.48,0.382c-0.334,0.314,-0.554,0.656,-0.652,1.017c-0.094,0.348,-0.143,0.735,-0.143,1.151l0,0.678l-0.483,0c-0.292,0,-0.539,0.059,-0.73,0.169c-0.227,0.13,-0.342,0.369,-0.342,0.708c0,0.412,0.185,0.604,0.341,0.693c0.191,0.111,0.438,0.166,0.73,0.166l0.483,0l0,5.362c0,0.293,0.057,0.539,0.167,0.73c0.13,0.227,0.367,0.341,0.708,0.341c0.411,0,0.603,-0.187,0.692,-0.341c0.111,-0.191,0.168,-0.438,0.168,-0.73l0,-5.36l0.92,0c0.293,0,0.54,-0.057,0.732,-0.168c0.155,-0.09,0.34,-0.28,0.34,-0.692c0,-0.34,-0.114,-0.579,-0.34,-0.708c-0.189,-0.111,-0.436,-0.17,-0.729,-0.17l-0.92,0l0,-0.678c0,-0.218,0.019,-0.41,0.056,-0.571c0.032,-0.141,0.103,-0.261,0.218,-0.367l0.002,-0.004l0.002,-0.002c0.082,-0.082,0.176,-0.126,0.29,-0.136c0.15,-0.015,0.339,-0.022,0.564,-0.022l0.56,0c0.291,0,0.539,-0.058,0.731,-0.168c0.154,-0.088,0.339,-0.281,0.339,-0.693C101.499,264.488,101.384,264.249,101.159,264.119z" fill="#8C8C8C" />
    <path d="M153.152,267.736c-0.089,-0.156,-0.282,-0.34,-0.693,-0.34c-0.339,0,-0.578,0.113,-0.707,0.34c-0.078,0.133,-0.127,0.293,-0.152,0.477l-0.021,-0.021c-0.216,-0.236,-0.466,-0.42,-0.747,-0.539c-0.277,-0.119,-0.563,-0.183,-0.849,-0.183l-0.709,0c-0.249,0,-0.466,0.015,-0.64,0.041c-0.182,0.026,-0.352,0.074,-0.51,0.14c-0.158,0.066,-0.313,0.15,-0.459,0.254c-0.139,0.097,-0.303,0.226,-0.486,0.377c-0.188,0.156,-0.342,0.302,-0.463,0.434c-0.127,0.141,-0.23,0.293,-0.306,0.455c-0.069,0.16,-0.122,0.337,-0.147,0.523c-0.026,0.178,-0.041,0.391,-0.041,0.631l0,2.386c0,0.24,0.015,0.451,0.041,0.631c0.025,0.188,0.078,0.361,0.147,0.521c0.074,0.164,0.179,0.318,0.306,0.457c0.119,0.129,0.274,0.274,0.463,0.433c0.186,0.153,0.35,0.28,0.486,0.379c0.146,0.103,0.299,0.188,0.459,0.254c0.158,0.065,0.329,0.112,0.51,0.14c0.174,0.026,0.389,0.039,0.64,0.039l0.709,0c0.298,0,0.591,-0.066,0.87,-0.199c0.244,-0.114,0.492,-0.291,0.73,-0.523l0,1.434c0,0.18,-0.025,0.334,-0.072,0.465c-0.043,0.119,-0.159,0.258,-0.344,0.406c-0.154,0.127,-0.309,0.217,-0.457,0.264c-0.15,0.049,-0.341,0.074,-0.563,0.074l-2.203,0c-0.293,0,-0.538,0.055,-0.732,0.166c-0.152,0.088,-0.34,0.282,-0.34,0.692c0,0.341,0.115,0.579,0.34,0.71c0.194,0.109,0.439,0.167,0.732,0.167l2.326,0c0.247,0,0.463,-0.015,0.638,-0.041c0.179,-0.026,0.351,-0.073,0.513,-0.14c0.153,-0.064,0.31,-0.15,0.455,-0.254c0.143,-0.101,0.305,-0.227,0.487,-0.379c0.185,-0.153,0.343,-0.299,0.463,-0.431c0.128,-0.141,0.229,-0.294,0.304,-0.456c0.071,-0.162,0.123,-0.338,0.148,-0.523c0.025,-0.182,0.041,-0.393,0.041,-0.631l0,-7.898C153.319,268.174,153.265,267.927,153.152,267.736zM151.583,272.196c0,0.188,-0.062,0.35,-0.188,0.49c-0.15,0.172,-0.394,0.403,-0.716,0.686l-0.002,0.003l-0.002,0.004c-0.139,0.13,-0.291,0.237,-0.453,0.325c-0.148,0.082,-0.325,0.121,-0.526,0.121L149.395,273.825c-0.222,0,-0.41,-0.021,-0.563,-0.072c-0.148,-0.049,-0.301,-0.137,-0.453,-0.264c-0.231,-0.186,-0.315,-0.322,-0.346,-0.404c-0.049,-0.131,-0.072,-0.285,-0.072,-0.465l0,-2.206c0,-0.18,0.023,-0.336,0.072,-0.467c0.029,-0.082,0.113,-0.217,0.346,-0.403c0.152,-0.127,0.305,-0.216,0.453,-0.265c0.153,-0.049,0.342,-0.072,0.563,-0.072l0.301,0c0.212,0,0.388,0.037,0.526,0.113c0.152,0.082,0.308,0.191,0.457,0.324c0.322,0.293,0.564,0.529,0.716,0.7c0.128,0.146,0.188,0.304,0.188,0.492L151.583,272.196z" fill="#8C8C8C" />
    <path d="M133.173,262.976c-0.914,0,-1.66,0.745,-1.66,1.66c0,0.916,0.746,1.66,1.66,1.66s1.66,-0.744,1.66,-1.66C134.833,263.721,134.087,262.976,133.173,262.976zM133.173,265.239c-0.332,0,-0.604,-0.27,-0.604,-0.603s0.271,-0.603,0.604,-0.603s0.604,0.27,0.604,0.603C133.777,264.969,133.505,265.239,133.173,265.239z" fill="#8C8C8C" />
    <path d="M143.859,273.244l-0.107,-3.419c-0.011,-0.178,-0.021,-0.338,-0.031,-0.489c-0.01,-0.162,-0.037,-0.322,-0.082,-0.476c-0.045,-0.158,-0.11,-0.309,-0.198,-0.453c-0.093,-0.146,-0.216,-0.289,-0.37,-0.42c-0.225,-0.192,-0.443,-0.334,-0.646,-0.416c-0.207,-0.084,-0.461,-0.127,-0.754,-0.127l-1.012,0c-0.259,0,-0.501,0.058,-0.716,0.164c-0.197,0.098,-0.39,0.203,-0.572,0.315l-0.003,0.002l-0.003,0.003l-0.837,0.555l0,-0.041c0,-0.291,-0.057,-0.539,-0.168,-0.733c-0.129,-0.226,-0.367,-0.339,-0.707,-0.339c-0.411,0,-0.604,0.185,-0.693,0.339c-0.109,0.194,-0.168,0.438,-0.168,0.733l0,6.099c0,0.295,0.059,0.539,0.168,0.734c0.09,0.153,0.282,0.338,0.693,0.338c0.34,0,0.578,-0.114,0.707,-0.338c0.111,-0.195,0.168,-0.439,0.168,-0.734L138.528,270.506l1.953,-1.215c0.04,-0.024,0.082,-0.048,0.121,-0.063c0.031,-0.016,0.07,-0.025,0.115,-0.031c0.049,-0.012,0.117,-0.016,0.195,-0.016l0.362,0c0.188,0,0.334,0.021,0.435,0.059c0.082,0.029,0.143,0.076,0.18,0.143c0.05,0.078,0.08,0.18,0.098,0.303c0.02,0.139,0.034,0.309,0.045,0.504l0.096,3.097c-0.457,0.297,-0.762,0.811,-0.762,1.394c0,0.917,0.746,1.661,1.66,1.661c0.916,0,1.66,-0.744,1.66,-1.661C144.685,274.069,144.352,273.531,143.859,273.244zM143.025,275.281c-0.334,0,-0.602,-0.271,-0.602,-0.604c0,-0.333,0.268,-0.604,0.602,-0.604c0.333,0,0.604,0.271,0.604,0.604C143.63,275.012,143.358,275.281,143.025,275.281z" fill="#8C8C8C" />
    <path d="M133.236,267.468l-1.193,0c-0.293,0,-0.539,0.059,-0.731,0.169c-0.226,0.129,-0.341,0.368,-0.341,0.708c0,0.412,0.186,0.604,0.341,0.691c0.192,0.113,0.438,0.168,0.731,0.168l0.545,0l0,5.362c0,0.293,0.055,0.539,0.168,0.73c0.127,0.227,0.365,0.341,0.707,0.341c0.41,0,0.604,-0.187,0.691,-0.341c0.111,-0.191,0.17,-0.438,0.17,-0.73L134.324,268.556c0,-0.386,-0.085,-0.656,-0.259,-0.83C133.893,267.554,133.62,267.468,133.236,267.468z" fill="#8C8C8C" />
   </g>
  </g>
 </g>
 <g partID="192050">
  <g transform="translate(35.9552,50.947)">
   <g transform="matrix(-1,0,0,-1,0,0)">
    <g id="schematic">
     <path d="M11.88,14.75c0,-2.17,-1.199,-4.058,-2.973,-5.04L9.72,9.71L9.72,3.95l-3.6,0l-3.6,0l0,5.76l0.813,0c-1.772,0.982,-2.974,2.87,-2.974,5.04s1.201,4.059,2.974,5.04L2.52,19.79l0,5.761l3.6,0l3.6,0L9.72,19.79L8.906,19.79C10.679,18.809,11.88,16.92,11.88,14.75z" fill="#FFFFFF" stroke="#000000" stroke-width="0.9"/>
     <g transform="matrix(1, 0, 0, 1, 4.3203, 16.2754)">
      <text font-family="'DroidSans'" font-size="4.25" id="label">M</text>
     </g>
     <line fill="none" stroke="#000000" stroke-linecap="round" stroke-width="0.9" x1="2.52" x2="2.52" y1="3.95" y2="9.71"/>
     <line fill="none" stroke="#000000" stroke-linecap="round" stroke-width="0.9" x1="2.52" x2="6.12" y1="3.95" y2="3.95"/>
     <line fill="none" stroke="#000000" stroke-linecap="round" stroke-width="0.9" x1="6.12" x2="9.72" y1="3.95" y2="3.95"/>
     <line fill="none" stroke="#000000" stroke-linecap="round" stroke-width="0.9" x1="9.72" x2="9.72" y1="3.95" y2="9.71"/>
     <line fill="none" stroke="#000000" stroke-linecap="round" stroke-width="0.9" x1="9.72" x2="9.72" y1="25.551" y2="19.79"/>
     <line fill="none" stroke="#000000" stroke-linecap="round" stroke-width="0.9" x1="9.72" x2="6.12" y1="25.551" y2="25.551"/>
     <line fill="none" stroke="#000000" stroke-linecap="round" stroke-width="0.9" x1="6.12" x2="2.52" y1="25.551" y2="25.551"/>
     <line fill="none" stroke="#000000" stroke-linecap="round" stroke-width="0.9" x1="2.52" x2="2.52" y1="25.551" y2="19.79"/>
     <line fill="none" id="connector0pin" stroke="#8C8C8C" stroke-linecap="round" stroke-miterlimit="10" stroke-width="0.75" x1="6.12" x2="6.12" y1="0.35" y2="3.95"/>
     <line fill="none" id="connector1pin" stroke="#8C8C8C" stroke-linecap="round" stroke-miterlimit="10" stroke-width="0.75" x1="6.12" x2="6.12" y1="29.15" y2="25.551"/>
     <circle cx="6.12" cy="14.75" fill="none" r="5.76" stroke="#000000" stroke-width="0.9"/>
     <g d="M6.448,1.094L6.448,0L5.776,0L5.761,1.094L6.448,1.094z" fill="none" id="connector0terminal"/>
     <g transform="matrix(1, 0, 0, 1, 7.2441, 2.6348)">
      <text fill="#8C8C8C" font-family="'DroidSans'" font-size="2.5">1</text>
     </g>
     <g transform="matrix(1, 0, 0, 1, 2.40594, 0.864304)">
      <g>
       <g transform="rotate(270)">
        <g>
         <g transform="matrix(0, 1, -1, 0, -6.5263, 2.7464)">
          <text fill="#787878" font-family="'DroidSans'" font-size="3.5">+</text>
         </g>
        </g>
       </g>
      </g>
     </g>
     <g d="M6.495,28.516l-0.75,0L5.745,29.5l0.75,0L6.495,28.516z" fill="none" id="connector1terminal"/>
     <g transform="matrix(1, 0, 0, 1, 7.2441, 28.5156)">
      <text fill="#8C8C8C" font-family="'DroidSans'" font-size="2.5">2</text>
     </g>
     <g transform="matrix(1, 0, 0, 1, 2.40594, 11.0243)">
      <g>
       <g transform="rotate(270)">
        <g>
         <g transform="matrix(0, 1, -1, 0, -13.1007, 3.0257)">
          <text fill="#787878" font-family="'DroidSans'" font-size="3.5">-</text>
         </g>
        </g>
       </g>
      </g>
     </g>
    </g>
   </g>
  </g>
 </g>
 <g partID="191390">
  <g transform="translate(0.700285,204.84)">
   <g transform="matrix(0,-1,1,0,0,0)">
    <g id="schematic">
     <line class="other" stroke="#000000" stroke-linecap="round" stroke-width="0.432" x1="3.24" x2="3.24" y1="36.3502" y2="34.9102"/>
     <line class="other" stroke="#000000" stroke-linecap="round" stroke-width="0.72" x1="3.24" x2="0.36" y1="34.9102" y2="32.7502"/>
     <line class="other" stroke="#000000" stroke-linecap="round" stroke-width="0.72" x1="0.36" x2="6.84" y1="32.7502" y2="29.1502"/>
     <line class="other" stroke="#000000" stroke-linecap="round" stroke-width="0.72" x1="6.84" x2="0.36" y1="29.1502" y2="25.5501"/>
     <line class="other" stroke="#000000" stroke-linecap="round" stroke-width="0.72" x1="0.36" x2="6.84" y1="25.5501" y2="21.95"/>
     <line class="other" stroke="#000000" stroke-linecap="round" stroke-width="0.72" x1="6.84" x2="0.36" y1="21.95" y2="18.35"/>
     <line class="other" stroke="#000000" stroke-linecap="round" stroke-width="0.72" x1="0.36" x2="6.84" y1="18.35" y2="14.75"/>
     <line class="other" stroke="#000000" stroke-linecap="round" stroke-width="0.72" x1="6.84" x2="0.36" y1="14.75" y2="11.15"/>
     <line class="other" stroke="#000000" stroke-linecap="round" stroke-width="0.72" x1="0.36" x2="3.24" y1="11.15" y2="8.99002"/>
     <line class="other" stroke="#000000" stroke-linecap="round" stroke-width="0.432" x1="3.24" x2="3.24" y1="8.99002" y2="7.55001"/>
     <line class="other" stroke="#000000" stroke-linecap="round" stroke-width="0.576" x1="6.84" x2="10.44" y1="21.95" y2="18.35"/>
     <line class="other" stroke="#000000" stroke-linecap="round" stroke-width="0.576" x1="10.44" x2="6.84" y1="25.5501" y2="21.95"/>
     <line class="other" stroke="#000000" stroke-linecap="round" stroke-width="0.576" x1="10.44" x2="10.44" y1="18.35" y2="25.5501"/>
     <line class="other" stroke="#000000" stroke-linecap="round" stroke-width="0.432" x1="9" x2="9" y1="35.2702" y2="28.0701"/>
     <line class="other" stroke="#000000" stroke-linecap="round" stroke-width="0.432" x1="9" x2="10.8" y1="28.0701" y2="31.6702"/>
     <line class="other" stroke="#000000" stroke-linecap="round" stroke-width="0.432" x1="10.8" x2="7.2" y1="31.6702" y2="31.6702"/>
     <line class="other" stroke="#000000" stroke-linecap="round" stroke-width="0.432" x1="7.2" x2="9" y1="31.6702" y2="28.0701"/>
     <line class="pin" connectorname="A" id="connector2pin" stroke="#787878" stroke-linecap="round" stroke-width="0.699999" x1="3.24" x2="3.24" y1="43.5502" y2="36.3502"/>
     <g class="terminal" fill="none" height="0.000283465" id="connector2terminal" stroke="none" stroke-width="0" width="0.000283465" x="3.24" y="43.5502"/>
     <g transform="matrix(1, 0, 0, 1, 2.19, 39.9502)">
      <g>
       <g transform="rotate(270)">
        <g>
         <text class="text" fill="#8c8c8c" font-family="'Droid Sans'" font-size="2.5" stroke="none" stroke-width="0" text-anchor="middle" x="0" y="0">3</text>
        </g>
       </g>
      </g>
     </g>
     <line class="pin" connectorname="E" id="connector0pin" stroke="#787878" stroke-linecap="round" stroke-width="0.699999" x1="3.24" x2="3.24" y1="0.35" y2="7.55001"/>
     <g class="terminal" fill="none" height="0.000283465" id="connector0terminal" stroke="none" stroke-width="0" width="0.000283465" x="3.24" y="0.35"/>
     <g transform="matrix(1, 0, 0, 1, 2.19, 3.95)">
      <g>
       <g transform="rotate(270)">
        <g>
         <text class="text" fill="#8c8c8c" font-family="'Droid Sans'" font-size="2.5" stroke="none" stroke-width="0" text-anchor="middle" x="0" y="0">1</text>
        </g>
       </g>
      </g>
     </g>
     <line class="pin" connectorname="S" id="connector1pin" stroke="#787878" stroke-linecap="round" stroke-width="0.699999" x1="17.64" x2="10.44" y1="21.95" y2="21.95"/>
     <g class="terminal" fill="none" height="0.000283465" id="connector1terminal" stroke="none" stroke-width="0" width="0.000283465" x="17.64" y="21.95"/>
     <text class="text" fill="#8c8c8c" font-family="'Droid Sans'" font-size="2.5" stroke="none" stroke-width="0" text-anchor="middle" x="14.04" y="20.9001">2</text>
    </g>
   </g>
  </g>
 </g>
 <g partID="192120">
  <g transform="translate(65.8504,0)">
   <g id="schematic">
    <rect fill="none" height="64.8" stroke="#000000" stroke-linecap="round" stroke-linejoin="round" stroke-width="0.9" width="49.95" x="14.4" y="14.4"/>
    <text fill="#000000" font-family="'Droid Sans'" font-size="3.5" id="label" stroke="none" text-anchor="middle" x="39.6" y="32.7">Motor</text>
    <text fill="#000000" font-family="'Droid Sans'" font-size="3.5" id="label" stroke="none" text-anchor="middle" x="39.6" y="36.2">Driver</text>
    <text fill="#000000" font-family="'Droid Sans'" font-size="3.5" id="label" stroke="none" text-anchor="middle" x="39.6" y="39.7">1A</text>
    <text fill="#000000" font-family="'Droid Sans'" font-size="3.5" id="label" stroke="none" text-anchor="middle" x="39.6" y="43.2">Dual</text>
    <text fill="#000000" font-family="'Droid Sans'" font-size="3.5" id="label" stroke="none" text-anchor="middle" x="39.6" y="46.7">TB6612FNG</text>
    <line fill="none" stroke="#787878" stroke-linecap="round" stroke-linejoin="round" stroke-width="0.699998" x1="0.349999" x2="14.4" y1="28.8" y2="28.8"/>
    <rect connectorName="A01" fill="none" height="0.699998" id="connector10pin" stroke-width="0" width="14.4" x="0" y="28.45"/>
    <g fill="none" height="0.699998" id="connector10terminal" stroke-width="0" width="0" x="0" y="28.45"/>
    <text fill="#8c8c8c" font-family="'Droid Sans'" font-size="3.5" id="label10" stroke="none" text-anchor="start" x="15.8" y="29.5">A01</text>
    <line fill="none" stroke="#787878" stroke-linecap="round" stroke-linejoin="round" stroke-width="0.699998" x1="0.349999" x2="14.4" y1="36" y2="36"/>
    <rect connectorName="A02" fill="none" height="0.699998" id="connector9pin" stroke-width="0" width="14.4" x="0" y="35.65"/>
    <g fill="none" height="0.699998" id="connector9terminal" stroke-width="0" width="0" x="0" y="35.65"/>
    <text fill="#8c8c8c" font-family="'Droid Sans'" font-size="3.5" id="label9" stroke="none" text-anchor="start" x="15.8" y="36.7">A02</text>
    <line fill="none" stroke="#787878" stroke-linecap="round" stroke-linejoin="round" stroke-width="0.699998" x1="0.349999" x2="14.4" y1="43.2" y2="43.2"/>
    <rect connectorName="AIN1" fill="none" height="0.699998" id="connector16pin" stroke-width="0" width="14.4" x="0" y="42.85"/>
    <g fill="none" height="0.699998" id="connector16terminal" stroke-width="0" width="0" x="0" y="42.85"/>
    <text fill="#8c8c8c" font-family="'Droid Sans'" font-size="3.5" id="label16" stroke="none" text-anchor="start" x="15.8" y="43.9">AIN1</text>
    <line fill="none" stroke="#787878" stroke-linecap="round" stroke-linejoin="round" stroke-width="0.699998" x1="0.349999" x2="14.4" y1="50.4" y2="50.4"/>
    <rect connectorName="AIN2" fill="none" height="0.699998" id="connector15pin" stroke-width="0" width="14.4" x="0" y="50.05"/>
    <g fill="none" height="0.699998" id="connector15terminal" stroke-width="0" width="0" x="0" y="50.05"/>
    <text fill="#8c8c8c" font-family="'Droid Sans'" font-size="3.5" id="label15" stroke="none" text-anchor="start" x="15.8" y="51.1">AIN2</text>
    <line fill="none" stroke="#787878" stroke-linecap="round" stroke-linejoin="round" stroke-width="0.699998" x1="0.349999" x2="14.4" y1="57.6" y2="57.6"/>
    <rect connectorName="B01" fill="none" height="0.699998" id="connector7pin" stroke-width="0" width="14.4" x="0" y="57.25"/>
    <g fill="none" height="0.699998" id="connector7terminal" stroke-width="0" width="0" x="0" y="57.25"/>
    <text fill="#8c8c8c" font-family="'Droid Sans'" font-size="3.5" id="label7" stroke="none" text-anchor="start" x="15.8" y="58.3">B01</text>
    <line fill="none" stroke="#787878" stroke-linecap="round" stroke-linejoin="round" stroke-width="0.699998" x1="64.45" x2="78.8501" y1="28.8" y2="28.8"/>
    <rect connectorname="STBY" fill="none" height="0.699998" id="connector17pin" stroke-width="0" width="14.4" x="64.8" y="28.45"/>
    <g fill="none" height="0.699998" id="connector17terminal" stroke-width="0" width="0" x="79.2" y="28.45"/>
    <text fill="#8c8c8c" font-family="'Droid Sans'" font-size="3.5" id="label17" stroke="none" text-anchor="end" x="63.4" y="29.5">STBY</text>
    <line fill="none" stroke="#787878" stroke-linecap="round" stroke-linejoin="round" stroke-width="0.699998" x1="64.45" x2="78.8501" y1="36" y2="36"/>
    <rect connectorname="PWMB" fill="none" height="0.699998" id="connector20pin" stroke-width="0" width="14.4" x="64.8" y="35.65"/>
    <g fill="none" height="0.699998" id="connector20terminal" stroke-width="0" width="0" x="79.2" y="35.65"/>
    <text fill="#8c8c8c" font-family="'Droid Sans'" font-size="3.5" id="label20" stroke="none" text-anchor="end" x="63.4" y="36.7">PWMB</text>
    <line fill="none" stroke="#787878" stroke-linecap="round" stroke-linejoin="round" stroke-width="0.699998" x1="64.45" x2="78.8501" y1="43.2" y2="43.2"/>
    <rect connectorname="PWMA" fill="none" height="0.699998" id="connector14pin" stroke-width="0" width="14.4" x="64.8" y="42.85"/>
    <g fill="none" height="0.699998" id="connector14terminal" stroke-width="0" width="0" x="79.2" y="42.85"/>
    <text fill="#8c8c8c" font-family="'Droid Sans'" font-size="3.5" id="label14" stroke="none" text-anchor="end" x="63.4" y="43.9">PWMA</text>
    <line fill="none" stroke="#787878" stroke-linecap="round" stroke-linejoin="round" stroke-width="0.699998" x1="64.45" x2="78.8501" y1="50.4" y2="50.4"/>
    <rect connectorname="BIN2" fill="none" height="0.699998" id="connector19pin" stroke-width="0" width="14.4" x="64.8" y="50.05"/>
    <g fill="none" height="0.699998" id="connector19terminal" stroke-width="0" width="0" x="79.2" y="50.05"/>
    <text fill="#8c8c8c" font-family="'Droid Sans'" font-size="3.5" id="label19" stroke="none" text-anchor="end" x="63.4" y="51.1">BIN2</text>
    <line fill="none" stroke="#787878" stroke-linecap="round" stroke-linejoin="round" stroke-width="0.699998" x1="64.45" x2="78.8501" y1="57.6" y2="57.6"/>
    <rect connectorname="BIN1" fill="none" height="0.699998" id="connector18pin" stroke-width="0" width="14.4" x="64.8" y="57.25"/>
    <g fill="none" height="0.699998" id="connector18terminal" stroke-width="0" width="0" x="79.2" y="57.25"/>
    <text fill="#8c8c8c" font-family="'Droid Sans'" font-size="3.5" id="label18" stroke="none" text-anchor="end" x="63.4" y="58.3">BIN1</text>
    <line fill="none" stroke="#787878" stroke-linecap="round" stroke-linejoin="round" stroke-width="0.699998" x1="64.45" x2="78.8501" y1="64.8" y2="64.8"/>
    <rect connectorname="B02" fill="none" height="0.699998" id="connector8pin" stroke-width="0" width="14.4" x="64.8" y="64.45"/>
    <g fill="none" height="0.699998" id="connector8terminal" stroke-width="0" width="0" x="79.2" y="64.45"/>
    <text fill="#8c8c8c" font-family="'Droid Sans'" font-size="3.5" id="label8" stroke="none" text-anchor="end" x="63.4" y="65.5">B02</text>
    <line fill="none" stroke="#787878" stroke-linecap="round" stroke-linejoin="round" stroke-width="0.699998" x1="36" x2="36" y1="0.349999" y2="14.4"/>
    <rect connectorname="VCC" fill="none" height="14.4" id="connector12pin" stroke-width="0" width="0.699998" x="35.65" y="0"/>
    <g fill="none" height="0" id="connector12terminal" stroke-width="0" width="0.699998" x="35.65" y="0"/>
    <g transform="matrix(1, 0, 0, 1, 37.4, 16)">
     <g>
      <g transform="rotate(270)">
       <g>
        <text fill="#8c8c8c" font-family="'Droid Sans'" font-size="3.5" id="label12" stroke="none" text-anchor="end" x="0" y="0">VCC</text>
       </g>
      </g>
     </g>
    </g>
    <line fill="none" stroke="#787878" stroke-linecap="round" stroke-linejoin="round" stroke-width="0.699998" x1="43.2" x2="43.2" y1="0.349999" y2="14.4"/>
    <rect connectorname="VM" fill="none" height="14.4" id="connector13pin" stroke-width="0" width="0.699998" x="42.85" y="0"/>
    <g fill="none" height="0" id="connector13terminal" stroke-width="0" width="0.699998" x="42.85" y="0"/>
    <g transform="matrix(1, 0, 0, 1, 44.6, 16)">
     <g>
      <g transform="rotate(270)">
       <g>
        <text fill="#8c8c8c" font-family="'Droid Sans'" font-size="3.5" id="label13" stroke="none" text-anchor="end" x="0" y="0">VM</text>
       </g>
      </g>
     </g>
    </g>
    <line fill="none" stroke="#787878" stroke-linecap="round" stroke-linejoin="round" stroke-width="0.699998" x1="36" x2="36" y1="79.2" y2="93.2501"/>
    <rect connectorname="GND" fill="none" height="14.4" id="connector6pin" stroke-width="0" width="0.699998" x="35.65" y="79.2"/>
    <g fill="none" height="0" id="connector6terminal" stroke-width="0" width="0.699998" x="35.65" y="93.6"/>
    <g transform="matrix(1, 0, 0, 1, 37.4, 77.6002)">
     <g>
      <g transform="rotate(270)">
       <g>
        <text fill="#8c8c8c" font-family="'Droid Sans'" font-size="3.5" id="label6" stroke="none" text-anchor="start" x="0" y="0">GND</text>
       </g>
      </g>
     </g>
    </g>
    <rect connectorname="GND" fill="none" height="14.4" id="connector11pin" stroke-width="0" width="0.699998" x="35.65" y="79.2"/>
    <g fill="none" height="0" id="connector11terminal" stroke-width="0" width="0.699998" x="35.65" y="93.6"/>
    <rect connectorname="GND" fill="none" height="14.4" id="connector21pin" stroke-width="0" width="0.699998" x="35.65" y="79.2"/>
    <g fill="none" height="0" id="connector21terminal" stroke-width="0" width="0.699998" x="35.65" y="93.6"/>
   </g>
  </g>
 </g>
 <g partID="198470">
  <g transform="translate(44.2504,129.6)">
   <g id="schematic" >
    <rect class="interior rect" fill="#FFFFFF" height="35.1" stroke="#000000" stroke-linecap="round" stroke-width="0.9" width="42.3" x="14.85"  y="0.45"/>
    <line class="pin" fill="none" id="connector7pin" stroke="#787878" stroke-linecap="round" stroke-width="0.699999" x1="57.2499" x2="71.6499"  y1="7.2" y2="7.2"/>
    <text class="text" fill="#8c8c8c" font-family="'Droid Sans'" font-size="2.5" stroke="none" stroke-width="0" text-anchor="middle" x="64.4499"  y="6.14999">8</text>
    <text class="text" fill="#8c8c8c" font-family="'Droid Sans'" font-size="3.49999" stroke="none" stroke-width="0" text-anchor="end" x="55.8499"  y="7.89999">Pin 8</text>
    <g class="terminal" fill="none" height="0.699999" id="connector7terminal" stroke="none" stroke-width="0" width="0.699999" x="71.6499"  y="6.85001"/>
    <line class="pin" fill="none" id="connector6pin" stroke="#787878" stroke-linecap="round" stroke-width="0.699999" x1="57.2499" x2="71.6499"  y1="14.4" y2="14.4"/>
    <text class="text" fill="#8c8c8c" font-family="'Droid Sans'" font-size="2.5" stroke="none" stroke-width="0" text-anchor="middle" x="64.4499"  y="13.35">7</text>
    <text class="text" fill="#8c8c8c" font-family="'Droid Sans'" font-size="3.49999" stroke="none" stroke-width="0" text-anchor="end" x="55.8499"  y="15.1">Pin 7</text>
    <g class="terminal" fill="none" height="0.699999" id="connector6terminal" stroke="none" stroke-width="0" width="0.699999" x="71.6499"  y="14.05"/>
    <line class="pin" fill="none" id="connector5pin" stroke="#787878" stroke-linecap="round" stroke-width="0.699999" x1="57.2499" x2="71.6499"  y1="21.6" y2="21.6"/>
    <text class="text" fill="#8c8c8c" font-family="'Droid Sans'" font-size="2.5" stroke="none" stroke-width="0" text-anchor="middle" x="64.4499"  y="20.55">6</text>
    <text class="text" fill="#8c8c8c" font-family="'Droid Sans'" font-size="3.49999" stroke="none" stroke-width="0" text-anchor="end" x="55.8499"  y="22.3">Pin 6</text>
    <g class="terminal" fill="none" height="0.699999" id="connector5terminal" stroke="none" stroke-width="0" width="0.699999" x="71.6499"  y="21.25"/>
    <line class="pin" fill="none" id="connector4pin" stroke="#787878" stroke-linecap="round" stroke-width="0.699999" x1="57.2499" x2="71.6499"  y1="28.8" y2="28.8"/>
    <text class="text" fill="#8c8c8c" font-family="'Droid Sans'" font-size="2.5" stroke="none" stroke-width="0" text-anchor="middle" x="64.4499"  y="27.75">5</text>
    <text class="text" fill="#8c8c8c" font-family="'Droid Sans'" font-size="3.49999" stroke="none" stroke-width="0" text-anchor="end" x="55.8499"  y="29.4999">Pin 5</text>
    <g class="terminal" fill="none" height="0.699999" id="connector4terminal" stroke="none" stroke-width="0" width="0.699999" x="71.6499"  y="28.4499"/>
    <line class="pin" fill="none" id="connector0pin" stroke="#787878" stroke-linecap="round" stroke-width="0.699999" x1="0.349999" x2="14.75"  y1="7.2" y2="7.2"/>
    <text class="text" fill="#8c8c8c" font-family="'Droid Sans'" font-size="2.5" stroke="none" stroke-width="0" text-anchor="middle" x="7.54999"  y="6.14999">1</text>
    <text class="text" fill="#8c8c8c" font-family="'Droid Sans'" font-size="3.49999" stroke="none" stroke-width="0" text-anchor="start" x="16.15"  y="7.89999">Pin 1</text>
    <g class="terminal" fill="none" height="0.699999" id="connector0terminal" stroke="none" stroke-width="0" width="0.699999" x="-0.349999"  y="6.85001"/>
    <line class="pin" fill="none" id="connector1pin" stroke="#787878" stroke-linecap="round" stroke-width="0.699999" x1="0.349999" x2="14.75"  y1="14.4" y2="14.4"/>
    <text class="text" fill="#8c8c8c" font-family="'Droid Sans'" font-size="2.5" stroke="none" stroke-width="0" text-anchor="middle" x="7.54999"  y="13.35">2</text>
    <text class="text" fill="#8c8c8c" font-family="'Droid Sans'" font-size="3.49999" stroke="none" stroke-width="0" text-anchor="start" x="16.15"  y="15.1">Pin 2</text>
    <g class="terminal" fill="none" height="0.699999" id="connector1terminal" stroke="none" stroke-width="0" width="0.699999" x="-0.349999"  y="14.05"/>
    <line class="pin" fill="none" id="connector2pin" stroke="#787878" stroke-linecap="round" stroke-width="0.699999" x1="0.349999" x2="14.75"  y1="21.6" y2="21.6"/>
    <text class="text" fill="#8c8c8c" font-family="'Droid Sans'" font-size="2.5" stroke="none" stroke-width="0" text-anchor="middle" x="7.54999"  y="20.55">3</text>
    <text class="text" fill="#8c8c8c" font-family="'Droid Sans'" font-size="3.49999" stroke="none" stroke-width="0" text-anchor="start" x="16.15"  y="22.3">Pin 3</text>
    <g class="terminal" fill="none" height="0.699999" id="connector2terminal" stroke="none" stroke-width="0" width="0.699999" x="-0.349999"  y="21.25"/>
    <line class="pin" fill="none" id="connector3pin" stroke="#787878" stroke-linecap="round" stroke-width="0.699999" x1="0.349999" x2="14.75"  y1="28.8" y2="28.8"/>
    <text class="text" fill="#8c8c8c" font-family="'Droid Sans'" font-size="2.5" stroke="none" stroke-width="0" text-anchor="middle" x="7.54999"  y="27.75">4</text>
    <text class="text" fill="#8c8c8c" font-family="'Droid Sans'" font-size="3.49999" stroke="none" stroke-width="0" text-anchor="start" x="16.15"  y="29.4999">Pin 4</text>
    <g class="terminal" fill="none" height="0.699999" id="connector3terminal" stroke="none" stroke-width="0" width="0.699999" x="-0.349999"  y="28.4499"/>
    <text class="text" fill="#000000" font-family="'Droid Sans'" font-size="4.25001" id="label" stroke="none" stroke-width="0" text-anchor="middle" x="36.4501"  y="16.1833">attiny85</text>
   </g>
  </g>
 </g>
 <g partID="201230">
  <g transform="translate(0.700045,233.424)">
   <g transform="matrix(1,0,0,1,0,0)">
    <g id="schematic" >
     <line class="other" stroke="#000000" stroke-linecap="round" stroke-width="1.152" x1="11.15" x2="11.15"  y1="0.576" y2="22.176"/>
     <line class="other" stroke="#000000" stroke-linecap="round" stroke-width="1.152" x1="14.75" x2="14.75"  y1="7.776" y2="14.976"/>
     <line class="other" stroke="#000000" stroke-linecap="round" stroke-width="1.152" x1="18.3501" x2="18.3501"  y1="0.576" y2="22.176"/>
     <line class="other" stroke="#000000" stroke-linecap="round" stroke-width="1.152" x1="21.9501" x2="21.9501"  y1="7.776" y2="14.976"/>
     <line class="other" stroke="#000000" stroke-linecap="round" stroke-width="0.432002" x1="7.55002" x2="10.43"  y1="11.376" y2="11.376"/>
     <line class="pin" connectorname="-" id="connector0pin" stroke="#787878" stroke-linecap="round" stroke-width="0.700001" x1="29.1502" x2="21.9501"  y1="11.376" y2="11.376"/>
     <g class="terminal" fill="none" height="0.000283465" id="connector0terminal" stroke="none" stroke-width="0" width="0.000283466" x="29.1502"  y="11.376"/>
     <text class="text" fill="#8c8c8c" font-family="'Droid Sans'" font-size="2.50001" stroke="none" stroke-width="0" text-anchor="middle" x="25.5501"  y="10.326">1</text>
     <line class="pin" connectorname="+" id="connector1pin" stroke="#787878" stroke-linecap="round" stroke-width="0.700001" x1="0.350001" x2="7.55002"  y1="11.376" y2="11.376"/>
     <g class="terminal" fill="none" height="0.000283465" id="connector1terminal" stroke="none" stroke-width="0" width="0.000283466" x="0.350001"  y="11.376"/>
     <text class="text" fill="#8c8c8c" font-family="'Droid Sans'" font-size="2.50001" stroke="none" stroke-width="0" text-anchor="middle" x="3.95001"  y="10.326">2</text>
    </g>
   </g>
  </g>
 </g>
 <g partID="350600">
  <line stroke="#cc1414" stroke-linecap="round" stroke-width="0.699998" x1="1.05043" x2="1.05019" y1="201.6" y2="244.8"/>
 </g>
 <circle cx="1.05043" cy="201.6" fill="black" r="1.44" stroke="none" stroke-width="0"/>
 <g partID="356120">
  <line stroke="#cc1414" stroke-linecap="round" stroke-width="0.699998" x1="116.305" x2="1.11524" y1="115.161" y2="115.161"/>
 </g>
 <circle cx="116.305" cy="115.161" fill="black" r="0.72" stroke="none" stroke-width="0"/>
 <circle cx="1.11524" cy="115.161" fill="black" r="0.72" stroke="none" stroke-width="0"/>
 <g partID="350920">
  <line stroke="#cc1414" stroke-linecap="round" stroke-width="0.699998" x1="1.11444" x2="1.05043" y1="115.161" y2="201.6"/>
 </g>
 <circle cx="1.11444" cy="115.161" fill="black" r="1.44" stroke="none" stroke-width="0"/>
 <circle cx="1.05043" cy="201.6" fill="black" r="1.44" stroke="none" stroke-width="0"/>
 <g partID="350770">
  <line stroke="#cc1414" stroke-linecap="round" stroke-width="0.699998" x1="116.25" x2="116.305" y1="136.8" y2="115.161"/>
 </g>
 <circle cx="116.305" cy="115.161" fill="black" r="0.72" stroke="none" stroke-width="0"/>
 <g partID="353580">
  <line stroke="#fff800" stroke-linecap="round" stroke-width="0.699998" x1="22.6128" x2="44.25" y1="144.091" y2="144"/>
 </g>
 <circle cx="22.6128" cy="144.091" fill="black" r="0.72" stroke="none" stroke-width="0"/>
 <g partID="351530">
  <line stroke="#fff800" stroke-linecap="round" stroke-width="0.699998" x1="22.6504" x2="22.6133" y1="187.2" y2="144.091"/>
 </g>
 <circle cx="22.6133" cy="144.091" fill="black" r="0.72" stroke="none" stroke-width="0"/>
 <g partID="358080">
  <line stroke="#fff800" stroke-linecap="round" stroke-width="0.699998" x1="152.269" x2="152.269" y1="43.2007" y2="151.191"/>
 </g>
 <circle cx="152.269" cy="43.2007" fill="black" r="0.72" stroke="none" stroke-width="0"/>
 <circle cx="152.269" cy="151.191" fill="black" r="0.72" stroke="none" stroke-width="0"/>
 <g partID="358020">
  <line stroke="#fff800" stroke-linecap="round" stroke-width="0.699998" x1="152.269" x2="116.25" y1="151.191" y2="151.2"/>
 </g>
 <circle cx="152.269" cy="151.191" fill="black" r="0.72" stroke="none" stroke-width="0"/>
 <g partID="351560">
  <line stroke="#fff800" stroke-linecap="round" stroke-width="0.699998" x1="137.85" x2="152.269" y1="43.2" y2="43.2007"/>
 </g>
 <circle cx="152.269" cy="43.2007" fill="black" r="0.72" stroke="none" stroke-width="0"/>
 <g partID="352830">
  <line stroke="#404040" stroke-linecap="round" stroke-width="0.699998" x1="44.3768" x2="29.8501" y1="244.683" y2="244.8"/>
 </g>
 <circle cx="44.3768" cy="244.683" fill="black" r="0.72" stroke="none" stroke-width="0"/>
 <g partID="352590">
  <line stroke="#404040" stroke-linecap="round" stroke-width="0.699998" x1="44.2504" x2="44.3767" y1="201.6" y2="244.683"/>
 </g>
 <circle cx="44.2504" cy="201.6" fill="black" r="1.44" stroke="none" stroke-width="0"/>
 <circle cx="44.3767" cy="244.683" fill="black" r="0.72" stroke="none" stroke-width="0"/>
 <g partID="354140">
  <line stroke="#404040" stroke-linecap="round" stroke-width="0.699998" x1="44.2504" x2="44.2503" y1="201.6" y2="158.4"/>
 </g>
 <circle cx="44.2504" cy="201.6" fill="black" r="1.44" stroke="none" stroke-width="0"/>
 <circle cx="44.2503" cy="158.4" fill="black" r="1.44" stroke="none" stroke-width="0"/>
 <g partID="355120">
  <line stroke="#25cc35" stroke-linecap="round" stroke-width="0.699998" x1="65.876" x2="73.0507" y1="36.0676" y2="36"/>
 </g>
 <circle cx="65.876" cy="36.0676" fill="black" r="0.72" stroke="none" stroke-width="0"/>
 <g partID="355330">
  <line stroke="#25cc35" stroke-linecap="round" stroke-width="0.699998" x1="44.3768" x2="44.3768" y1="50.4" y2="36.0676"/>
 </g>
 <circle cx="44.3768" cy="50.4" fill="black" r="0.72" stroke="none" stroke-width="0"/>
 <circle cx="44.3768" cy="36.0676" fill="black" r="0.72" stroke="none" stroke-width="0"/>
 <g partID="355300">
  <line stroke="#25cc35" stroke-linecap="round" stroke-width="0.699998" x1="44.3768" x2="65.8754" y1="36.0676" y2="36.0676"/>
 </g>
 <circle cx="44.3768" cy="36.0676" fill="black" r="0.72" stroke="none" stroke-width="0"/>
 <circle cx="65.8754" cy="36.0676" fill="black" r="0.72" stroke="none" stroke-width="0"/>
 <g partID="355130">
  <line stroke="#25cc35" stroke-linecap="round" stroke-width="0.699998" x1="29.8504" x2="44.3772" y1="50.4" y2="50.4"/>
 </g>
 <circle cx="44.3772" cy="50.4" fill="black" r="0.72" stroke="none" stroke-width="0"/>
 <g partID="355270">
  <line stroke="#fff800" stroke-linecap="round" stroke-width="0.699998" x1="44.3768" x2="44.3768" y1="21.4698" y2="28.9014"/>
 </g>
 <circle cx="44.3768" cy="21.4698" fill="black" r="0.72" stroke="none" stroke-width="0"/>
 <circle cx="44.3768" cy="28.9014" fill="black" r="0.72" stroke="none" stroke-width="0"/>
 <g partID="355240">
  <line stroke="#fff800" stroke-linecap="round" stroke-width="0.699998" x1="44.3768" x2="73.0501" y1="28.9014" y2="28.8"/>
 </g>
 <circle cx="44.3768" cy="28.9014" fill="black" r="0.72" stroke="none" stroke-width="0"/>
 <g partID="355200">
  <line stroke="#fff800" stroke-linecap="round" stroke-width="0.699998" x1="29.7792" x2="44.377" y1="21.4698" y2="21.4698"/>
 </g>
 <circle cx="29.7792" cy="21.4698" fill="black" r="0.72" stroke="none" stroke-width="0"/>
 <circle cx="44.377" cy="21.4698" fill="black" r="0.72" stroke="none" stroke-width="0"/>
 <g partID="355210">
  <line stroke="#fff800" stroke-linecap="round" stroke-width="0.699998" x1="29.8352" x2="29.7797" y1="21.939" y2="21.4698"/>
 </g>
 <circle cx="29.7797" cy="21.4698" fill="black" r="0.72" stroke="none" stroke-width="0"/>
 <g partID="355400">
  <line stroke="#cc1414" stroke-linecap="round" stroke-width="0.699998" x1="101.85" x2="109.05" y1="7.2" y2="7.2"/>
 </g>
 <circle cx="101.85" cy="7.2" fill="black" r="1.44" stroke="none" stroke-width="0"/>
 <circle cx="109.05" cy="7.2" fill="black" r="1.44" stroke="none" stroke-width="0"/>
 <g partID="355640">
  <line stroke="#cc1414" stroke-linecap="round" stroke-width="0.699998" x1="137.803" x2="137.851" y1="7.13744" y2="28.8"/>
 </g>
 <circle cx="137.803" cy="7.13744" fill="black" r="0.72" stroke="none" stroke-width="0"/>
 <g partID="355530">
  <line stroke="#cc1414" stroke-linecap="round" stroke-width="0.699998" x1="109.05" x2="137.803" y1="7.2" y2="7.13744"/>
 </g>
 <circle cx="109.05" cy="7.2" fill="black" r="1.44" stroke="none" stroke-width="0"/>
 <circle cx="137.803" cy="7.13744" fill="black" r="0.72" stroke="none" stroke-width="0"/>
 <g partID="356010">
  <line stroke="#cc1414" stroke-linecap="round" stroke-width="0.699998" x1="1.11444" x2="101.85" y1="7.2" y2="7.2"/>
 </g>
 <circle cx="1.11444" cy="7.2" fill="black" r="0.72" stroke="none" stroke-width="0"/>
 <circle cx="101.85" cy="7.2" fill="black" r="1.44" stroke="none" stroke-width="0"/>
 <g partID="355920">
  <line stroke="#cc1414" stroke-linecap="round" stroke-width="0.699998" x1="1.11444" x2="1.11444" y1="115.161" y2="7.20032"/>
 </g>
 <circle cx="1.11444" cy="115.161" fill="black" r="0.72" stroke="none" stroke-width="0"/>
 <circle cx="1.11444" cy="7.20032" fill="black" r="0.72" stroke="none" stroke-width="0"/>
 <g partID="356230">
  <line stroke="#404040" stroke-linecap="round" stroke-width="0.699998" x1="44.3776" x2="44.2504" y1="201.686" y2="158.4"/>
 </g>
 <circle cx="44.3776" cy="201.686" fill="black" r="0.72" stroke="none" stroke-width="0"/>
 <circle cx="44.2504" cy="158.4" fill="black" r="1.44" stroke="none" stroke-width="0"/>
 <g partID="356530">
  <line stroke="#404040" stroke-linecap="round" stroke-width="0.699998" x1="130.671" x2="44.3776" y1="201.586" y2="201.687"/>
 </g>
 <circle cx="130.671" cy="201.586" fill="black" r="0.72" stroke="none" stroke-width="0"/>
 <circle cx="44.3776" cy="201.687" fill="black" r="0.72" stroke="none" stroke-width="0"/>
 <g partID="356420">
  <line stroke="#404040" stroke-linecap="round" stroke-width="0.699998" x1="101.972" x2="130.671" y1="93.6626" y2="93.596"/>
 </g>
 <circle cx="101.972" cy="93.6626" fill="black" r="0.72" stroke="none" stroke-width="0"/>
 <circle cx="130.671" cy="93.596" fill="black" r="0.72" stroke="none" stroke-width="0"/>
 <g partID="356330">
  <line stroke="#404040" stroke-linecap="round" stroke-width="0.699998" x1="130.671" x2="130.671" y1="93.596" y2="201.586"/>
 </g>
 <circle cx="130.671" cy="93.596" fill="black" r="0.72" stroke="none" stroke-width="0"/>
 <circle cx="130.671" cy="201.586" fill="black" r="0.72" stroke="none" stroke-width="0"/>
 <g partID="356240">
  <line stroke="#404040" stroke-linecap="round" stroke-width="0.699998" x1="101.85" x2="101.972" y1="86.4" y2="93.6626"/>
 </g>
 <circle cx="101.972" cy="93.6626" fill="black" r="0.72" stroke="none" stroke-width="0"/>
 <g partID="358210">
  <line stroke="#418dd9" stroke-linecap="round" stroke-width="0.699998" x1="51.4784" x2="51.4784" y1="107.995" y2="43.2006"/>
 </g>
 <circle cx="51.4784" cy="107.995" fill="black" r="0.72" stroke="none" stroke-width="0"/>
 <circle cx="51.4784" cy="43.2006" fill="black" r="0.72" stroke="none" stroke-width="0"/>
 <g partID="358180">
  <line stroke="#418dd9" stroke-linecap="round" stroke-width="0.699998" x1="37.0792" x2="51.4779" y1="107.995" y2="107.995"/>
 </g>
 <circle cx="37.0792" cy="107.995" fill="black" r="0.72" stroke="none" stroke-width="0"/>
 <circle cx="51.4779" cy="107.995" fill="black" r="0.72" stroke="none" stroke-width="0"/>
 <g partID="358150">
  <line stroke="#418dd9" stroke-linecap="round" stroke-width="0.699998" x1="37.0792" x2="37.0792" y1="151.19" y2="107.994"/>
 </g>
 <circle cx="37.0792" cy="151.19" fill="black" r="0.72" stroke="none" stroke-width="0"/>
 <circle cx="37.0792" cy="107.994" fill="black" r="0.72" stroke="none" stroke-width="0"/>
 <g partID="356730">
  <line stroke="#418dd9" stroke-linecap="round" stroke-width="0.699998" x1="51.4784" x2="73.0507" y1="43.2007" y2="43.2"/>
 </g>
 <circle cx="51.4784" cy="43.2007" fill="black" r="0.72" stroke="none" stroke-width="0"/>
 <g partID="356670">
  <line stroke="#418dd9" stroke-linecap="round" stroke-width="0.699998" x1="44.2504" x2="37.0795" y1="151.2" y2="151.191"/>
 </g>
 <circle cx="37.0795" cy="151.191" fill="black" r="0.72" stroke="none" stroke-width="0"/>
 <g partID="358050">
  <line stroke="#25cc35" stroke-linecap="round" stroke-width="0.699998" x1="123.471" x2="116.25" y1="143.991" y2="144"/>
 </g>
 <circle cx="123.471" cy="143.991" fill="black" r="0.72" stroke="none" stroke-width="0"/>
 <g partID="357990">
  <line stroke="#25cc35" stroke-linecap="round" stroke-width="0.699998" x1="123.471" x2="123.471" y1="107.995" y2="143.991"/>
 </g>
 <circle cx="123.471" cy="107.995" fill="black" r="0.72" stroke="none" stroke-width="0"/>
 <circle cx="123.471" cy="143.991" fill="black" r="0.72" stroke="none" stroke-width="0"/>
 <g partID="357960">
  <line stroke="#25cc35" stroke-linecap="round" stroke-width="0.699998" x1="58.6776" x2="123.472" y1="107.995" y2="107.995"/>
 </g>
 <circle cx="58.6776" cy="107.995" fill="black" r="0.72" stroke="none" stroke-width="0"/>
 <circle cx="123.472" cy="107.995" fill="black" r="0.72" stroke="none" stroke-width="0"/>
 <g partID="357930">
  <line stroke="#25cc35" stroke-linecap="round" stroke-width="0.699998" x1="58.6776" x2="58.6776" y1="50.4" y2="107.995"/>
 </g>
 <circle cx="58.6776" cy="50.4" fill="black" r="0.72" stroke="none" stroke-width="0"/>
 <circle cx="58.6776" cy="107.995" fill="black" r="0.72" stroke="none" stroke-width="0"/>
 <g partID="356700">
  <line stroke="#25cc35" stroke-linecap="round" stroke-width="0.699998" x1="73.0504" x2="58.6776" y1="50.4" y2="50.4"/>
 </g>
 <circle cx="58.6776" cy="50.4" fill="black" r="0.72" stroke="none" stroke-width="0"/>
 <g id="partLabel" partID="191390">
  <g transform="translate(18.64,205.188)">
   <g fill="#000000" fill-opacity="1" font-family="'DroidSans'" font-size="5.000" font-style="normal" font-weight="normal" id="schematicLabel" stroke="none">
    <text x="0" y="5.000">Pot</text>
   </g>
  </g>
 </g>
 <g id="partLabel" partID="201230">
  <g transform="translate(14.2752,227.824)">
   <g fill="#000000" fill-opacity="1" font-family="'DroidSans'" font-size="5.000" font-style="normal" font-weight="normal" id="schematicLabel" stroke="none">
    <text x="0" y="5.000">5v</text>
   </g>
  </g>
 </g>
</svg>
